# Blender v2.79 (sub 0) OBJ File: 'SHERPA NEW ASSET.blend'
# www.blender.org
mtllib bow.mtl
o bow
v -0.065071 0.739739 0.666200
v 0.048963 0.740221 0.667372
v -0.064446 0.644057 0.629600
v 0.049587 0.644539 0.630771
v -0.007764 0.644478 0.661760
v -0.005074 0.607338 0.411479
v 0.093010 0.608067 0.468972
v 0.091841 0.608691 0.582044
v -0.007413 0.608586 0.637409
v -0.105497 0.607857 0.580017
v -0.104327 0.607233 0.466945
v -0.008509 1.127427 0.604199
v 0.089543 1.141068 0.657140
v 0.088304 1.168039 0.762787
v -0.010987 1.181062 0.815402
v -0.109033 1.167206 0.760766
v -0.107793 1.140247 0.655122
v -0.008295 1.728362 0.235361
v 0.069151 1.759246 0.265582
v 0.068234 1.820355 0.325566
v -0.010129 1.850581 0.354884
v -0.087573 1.819697 0.323928
v -0.086656 1.758587 0.263938
v -0.005062 2.267956 -0.721156
v 0.041624 2.293683 -0.719135
v 0.041271 2.344740 -0.716047
v -0.005769 2.370071 -0.715131
v -0.052457 2.344345 -0.717010
v -0.052104 2.293287 -0.720098
v -0.001007 2.808627 -1.542196
v 0.017620 2.815504 -1.533583
v 0.017390 2.829099 -1.516742
v -0.001468 2.835817 -1.508514
v -0.020097 2.828940 -1.517127
v -0.019866 2.815345 -1.533967
v -0.001275 3.013045 -1.581644
v 0.012434 3.013720 -1.574256
v 0.012270 3.014959 -1.559766
v -0.001603 3.015520 -1.552665
v -0.015313 3.014842 -1.560050
v -0.015148 3.013604 -1.574539
v -0.001814 3.115535 -1.551819
v 0.003540 3.115799 -1.548918
v 0.003476 3.116282 -1.543229
v -0.001943 3.116501 -1.540440
v -0.007297 3.116236 -1.543340
v -0.007232 3.115753 -1.549029
v -0.005427 0.317703 0.528868
v 0.048689 0.312078 0.559962
v 0.049849 0.302609 0.623218
v -0.006677 0.299070 0.656004
v -0.062537 0.302134 0.622064
v -0.060136 0.311618 0.558845
v 0.091953 0.765321 0.533049
v 0.090753 0.774270 0.647018
v -0.106584 0.773436 0.644992
v -0.105384 0.764487 0.531022
v -0.008504 0.778327 0.699205
v -0.006119 0.760430 0.476373
v 0.031131 0.669137 0.738885
v 0.030981 0.677570 0.750978
v -0.008887 0.669094 0.759354
v -0.009037 0.677737 0.771760
v -0.048595 0.677234 0.750161
v -0.048444 0.668801 0.738068
v -0.005296 0.516557 0.457285
v 0.052813 0.511538 0.494230
v 0.047332 0.495737 0.556032
v -0.006530 0.486598 0.584314
v -0.059845 0.495284 0.554931
v -0.064130 0.511044 0.493027
v 0.081392 0.607717 0.475811
v -0.005209 0.606795 0.425129
v -0.004875 0.500411 0.420204
v 0.080555 0.608888 0.575797
v -0.007281 0.609128 0.625040
v -0.094078 0.608150 0.574003
v -0.092841 0.606980 0.474021
v 0.081922 0.501389 0.471041
v 0.080687 0.502559 0.570650
v -0.006945 0.502744 0.619370
v -0.093547 0.501823 0.568862
v -0.092710 0.500651 0.469248
v -0.008394 0.742565 0.697373
v 0.031330 0.715986 0.709989
v -0.008690 0.717622 0.729669
v -0.047810 0.648881 0.683973
v 0.031765 0.649217 0.684790
v -0.008253 0.649175 0.705526
v -0.048245 0.715650 0.709172
v -0.065071 -0.739739 0.666200
v 0.048963 -0.740221 0.667372
v -0.064446 -0.644057 0.629600
v 0.049587 -0.644539 0.630771
v -0.007764 -0.644478 0.661760
v -0.005074 -0.607338 0.411479
v 0.093010 -0.608067 0.468972
v 0.091841 -0.608691 0.582044
v -0.007413 -0.608586 0.637409
v -0.105497 -0.607857 0.580017
v -0.104327 -0.607233 0.466945
v -0.008509 -1.127427 0.604199
v 0.089543 -1.141068 0.657140
v 0.088304 -1.168039 0.762787
v -0.010987 -1.181062 0.815402
v -0.109033 -1.167206 0.760766
v -0.107793 -1.140247 0.655122
v -0.008295 -1.728362 0.235361
v 0.069151 -1.759246 0.265582
v 0.068234 -1.820355 0.325566
v -0.010129 -1.850581 0.354884
v -0.087573 -1.819697 0.323928
v -0.086656 -1.758587 0.263938
v -0.005062 -2.267956 -0.721156
v 0.041624 -2.293683 -0.719135
v 0.041271 -2.344740 -0.716047
v -0.005769 -2.370071 -0.715131
v -0.052457 -2.344345 -0.717010
v -0.052104 -2.293287 -0.720098
v -0.001007 -2.808627 -1.542196
v 0.017620 -2.815504 -1.533583
v 0.017390 -2.829099 -1.516742
v -0.001468 -2.835817 -1.508514
v -0.020097 -2.828940 -1.517127
v -0.019866 -2.815345 -1.533967
v -0.001275 -3.013045 -1.581644
v 0.012434 -3.013720 -1.574256
v 0.012270 -3.014959 -1.559766
v -0.001603 -3.015520 -1.552665
v -0.015313 -3.014842 -1.560050
v -0.015148 -3.013604 -1.574539
v -0.001814 -3.115535 -1.551819
v 0.003540 -3.115799 -1.548918
v 0.003476 -3.116282 -1.543229
v -0.001943 -3.116501 -1.540440
v -0.007297 -3.116236 -1.543340
v -0.007232 -3.115753 -1.549029
v -0.005427 -0.317703 0.528868
v 0.048689 -0.312078 0.559962
v 0.049849 -0.302609 0.623218
v -0.006677 -0.299070 0.656004
v -0.062537 -0.302134 0.622064
v -0.060136 -0.311618 0.558845
v 0.091953 -0.765321 0.533049
v 0.090753 -0.774270 0.647018
v -0.106584 -0.773436 0.644992
v -0.105384 -0.764487 0.531022
v -0.008504 -0.778327 0.699205
v -0.006119 -0.760430 0.476373
v 0.031131 -0.669137 0.738885
v 0.030981 -0.677570 0.750978
v -0.008887 -0.669094 0.759354
v -0.009037 -0.677737 0.771760
v -0.048595 -0.677234 0.750161
v -0.048444 -0.668801 0.738068
v -0.005296 -0.516557 0.457285
v 0.052813 -0.511538 0.494230
v 0.047332 -0.495737 0.556032
v -0.006530 -0.486598 0.584314
v -0.059845 -0.495284 0.554931
v -0.064130 -0.511044 0.493027
v 0.081392 -0.607717 0.475811
v -0.005209 -0.606795 0.425129
v -0.004875 -0.500411 0.420204
v 0.080555 -0.608888 0.575797
v -0.007281 -0.609128 0.625040
v -0.094078 -0.608150 0.574003
v -0.092841 -0.606980 0.474021
v 0.081922 -0.501389 0.471041
v 0.080687 -0.502559 0.570650
v -0.006945 -0.502744 0.619370
v -0.093547 -0.501823 0.568862
v -0.092710 -0.500651 0.469248
v -0.008394 -0.742565 0.697373
v 0.031330 -0.715986 0.709989
v -0.008690 -0.717622 0.729669
v -0.047810 -0.648881 0.683973
v 0.031765 -0.649217 0.684790
v -0.008253 -0.649175 0.705526
v -0.048245 -0.715650 0.709172
v -0.011435 0.000000 0.581474
v 0.042931 0.000000 0.613160
v 0.043267 0.000000 0.676948
v -0.012750 0.000000 0.709202
v -0.068092 0.000000 0.675805
v -0.066443 0.000000 0.612037
vt 0.180271 0.061673
vt 0.180265 0.061017
vt 0.180100 0.062764
vt 0.180003 0.063237
vt 0.190441 0.048031
vt 0.190388 0.048212
vt 0.190395 0.048161
vt 0.190431 0.048084
vt 0.115520 0.253506
vt 0.115555 0.253370
vt 0.115540 0.253336
vt 0.115489 0.253477
vt 0.179892 0.062764
vt 0.180050 0.063295
vt 0.179946 0.064398
vt 0.180033 0.064055
vt 0.190369 0.048206
vt 0.190357 0.048184
vt 0.190380 0.048147
vt 0.190389 0.048151
vt 0.115344 0.253798
vt 0.115380 0.253757
vt 0.114900 0.255019
vt 0.114909 0.255045
vt 0.190427 0.048018
vt 0.190404 0.048059
vt 0.115496 0.253486
vt 0.115532 0.253384
vt 0.115513 0.253331
vt 0.115458 0.253450
vt 0.115489 0.253479
vt 0.115521 0.253388
vt 0.115517 0.253370
vt 0.115482 0.253473
vt 0.114934 0.255039
vt 0.113370 0.259434
vt 0.113315 0.259506
vt 0.115394 0.253770
vt 0.115391 0.253841
vt 0.114943 0.255075
vt 0.114962 0.255075
vt 0.115360 0.253842
vt 0.114925 0.255063
vt 0.115397 0.253738
vt 0.113359 0.259547
vt 0.113279 0.259711
vt 0.109308 0.270526
vt 0.109700 0.269836
vt 0.113242 0.259794
vt 0.113268 0.259701
vt 0.109815 0.269427
vt 0.096587 0.306490
vt 0.096653 0.306422
vt 0.109483 0.270686
vt 0.109250 0.271014
vt 0.109654 0.269793
vt 0.096498 0.306641
vt 0.091971 0.319413
vt 0.091942 0.319566
vt 0.096519 0.306800
vt 0.096650 0.306547
vt 0.096614 0.306748
vt 0.091958 0.319641
vt 0.089346 0.327249
vt 0.089267 0.327134
vt 0.092078 0.319487
vt 0.092035 0.319380
vt 0.092008 0.319615
vt 0.089160 0.327114
vt 0.089281 0.327511
vt 0.089041 0.327817
vt 0.089062 0.327374
vt 0.651521 0.327994
vt 0.652901 0.340251
vt 0.653076 0.340990
vt 0.654073 0.330413
vt 0.651521 0.322106
vt 0.652917 0.338737
vt 0.655593 0.314284
vt 0.653371 0.337861
vt 0.658131 0.322729
vt 0.653653 0.338806
vt 0.657031 0.328514
vt 0.653386 0.340297
vt 0.183663 0.083102
vt 0.183569 0.083130
vt 0.183637 0.082628
vt 0.183709 0.082612
vt 0.091248 0.040941
vt 0.091244 0.040918
vt 0.091306 0.041071
vt 0.091238 0.041042
vt 0.115457 0.253569
vt 0.115450 0.253560
vt 0.115380 0.253726
vt 0.115393 0.253748
vt 0.115465 0.253574
vt 0.115411 0.253755
vt 0.652627 0.347958
vt 0.652373 0.348450
vt 0.652594 0.346828
vt 0.652587 0.346173
vt 0.652458 0.346815
vt 0.652215 0.347919
vt 0.179732 0.066668
vt 0.179653 0.066523
vt 0.179519 0.066165
vt 0.180108 0.063247
vt 0.179796 0.065994
vt 0.180035 0.066214
vt 0.179837 0.066540
vt 0.179924 0.064045
vt 0.180136 0.061660
vt 0.180304 0.062803
vt 0.190433 0.048026
vt 0.190415 0.048077
vt 0.183750 0.083147
vt 0.183777 0.082642
vt 0.183597 0.082054
vt 0.183727 0.082489
vt 0.183924 0.082085
vt 0.183715 0.082488
vt 0.091255 0.040919
vt 0.091166 0.041058
vt 0.183754 0.082138
vt 0.183719 0.082512
vt 0.180271 0.061673
vt 0.180003 0.063237
vt 0.180100 0.062764
vt 0.180265 0.061017
vt 0.190441 0.048031
vt 0.190431 0.048084
vt 0.190395 0.048161
vt 0.190388 0.048212
vt 0.115520 0.253506
vt 0.115489 0.253477
vt 0.115540 0.253336
vt 0.115555 0.253370
vt 0.179892 0.062764
vt 0.180033 0.064055
vt 0.179946 0.064398
vt 0.180050 0.063295
vt 0.190369 0.048206
vt 0.190389 0.048151
vt 0.190380 0.048147
vt 0.190357 0.048184
vt 0.115344 0.253798
vt 0.114909 0.255045
vt 0.114900 0.255019
vt 0.115380 0.253757
vt 0.190404 0.048059
vt 0.190427 0.048018
vt 0.115496 0.253486
vt 0.115532 0.253384
vt 0.115458 0.253450
vt 0.115513 0.253331
vt 0.115489 0.253479
vt 0.115521 0.253388
vt 0.115482 0.253473
vt 0.115517 0.253370
vt 0.113315 0.259506
vt 0.113370 0.259434
vt 0.114934 0.255039
vt 0.115394 0.253770
vt 0.114962 0.255075
vt 0.114943 0.255075
vt 0.115391 0.253841
vt 0.115360 0.253842
vt 0.114925 0.255063
vt 0.115397 0.253738
vt 0.113359 0.259547
vt 0.109700 0.269836
vt 0.109308 0.270526
vt 0.113279 0.259711
vt 0.113242 0.259794
vt 0.113268 0.259701
vt 0.109815 0.269427
vt 0.096653 0.306422
vt 0.096587 0.306490
vt 0.109250 0.271014
vt 0.109483 0.270686
vt 0.109654 0.269793
vt 0.091942 0.319566
vt 0.091971 0.319413
vt 0.096498 0.306641
vt 0.096519 0.306800
vt 0.096614 0.306748
vt 0.096650 0.306547
vt 0.091958 0.319641
vt 0.089267 0.327134
vt 0.089346 0.327249
vt 0.092035 0.319380
vt 0.092078 0.319487
vt 0.092008 0.319615
vt 0.089160 0.327114
vt 0.089062 0.327374
vt 0.089041 0.327817
vt 0.089281 0.327511
vt 0.653076 0.340990
vt 0.652901 0.340251
vt 0.652917 0.338737
vt 0.653371 0.337861
vt 0.653653 0.338806
vt 0.653386 0.340297
vt 0.183663 0.083102
vt 0.183709 0.082612
vt 0.183637 0.082628
vt 0.183569 0.083130
vt 0.091248 0.040941
vt 0.091238 0.041042
vt 0.091306 0.041071
vt 0.091244 0.040918
vt 0.115450 0.253560
vt 0.115457 0.253569
vt 0.115393 0.253748
vt 0.115380 0.253726
vt 0.115465 0.253574
vt 0.115411 0.253755
vt 0.652373 0.348450
vt 0.652627 0.347958
vt 0.652594 0.346828
vt 0.652587 0.346173
vt 0.652458 0.346815
vt 0.652215 0.347919
vt 0.179653 0.066523
vt 0.179732 0.066668
vt 0.180108 0.063247
vt 0.179519 0.066165
vt 0.179796 0.065994
vt 0.180035 0.066214
vt 0.179924 0.064045
vt 0.179837 0.066540
vt 0.180136 0.061660
vt 0.180304 0.062803
vt 0.190433 0.048026
vt 0.190415 0.048077
vt 0.183750 0.083147
vt 0.183777 0.082642
vt 0.183727 0.082489
vt 0.183597 0.082054
vt 0.183924 0.082085
vt 0.183715 0.082488
vt 0.091255 0.040919
vt 0.091166 0.041058
vt 0.183754 0.082138
vt 0.183719 0.082512
vn -0.2139 -0.9347 0.2838
vn 0.9398 -0.1161 0.3213
vn 0.0262 -0.9992 -0.0290
vn -0.2095 -0.9297 0.3030
vn -0.3406 0.7518 0.5646
vn 0.9999 0.0030 0.0106
vn -0.9459 -0.1208 0.3012
vn 0.0014 -1.0000 0.0084
vn -0.0172 -0.9994 -0.0294
vn -0.0167 -0.9994 -0.0292
vn 0.0069 -0.9999 0.0085
vn 0.4728 -0.4607 -0.7511
vn -0.9999 -0.0030 -0.0106
vn 0.4352 -0.2493 0.8651
vn 0.4459 0.2901 -0.8468
vn -0.4305 0.2874 -0.8556
vn -0.4511 -0.2521 0.8561
vn -0.9995 0.0062 -0.0311
vn -0.4530 -0.4659 -0.7601
vn -0.4794 0.4984 0.7223
vn 0.9995 0.0299 -0.0029
vn -0.9996 0.0186 -0.0229
vn 0.4599 0.5035 0.7315
vn -0.4351 -0.7505 -0.4975
vn 0.4500 0.8025 0.3919
vn 0.4647 -0.7723 -0.4331
vn -0.4486 -0.7782 -0.4395
vn -0.4653 0.7968 0.3854
vn 0.9997 0.0204 -0.0162
vn -0.9996 0.0199 -0.0220
vn -0.4558 0.7690 0.4481
vn 0.9997 0.0152 -0.0201
vn -0.9993 0.0028 -0.0383
vn 0.4396 0.7739 0.4559
vn 0.4519 -0.7455 -0.4898
vn -0.4340 0.2497 -0.8656
vn 0.4528 0.2130 0.8658
vn 0.4682 -0.1663 -0.8678
vn -0.4487 -0.1694 -0.8775
vn -0.4725 0.2099 0.8560
vn 0.9996 0.0268 -0.0001
vn -0.0034 0.9964 -0.0846
vn -0.4679 -0.1077 0.8772
vn 0.9963 0.0858 0.0039
vn -0.9965 0.0818 -0.0183
vn 0.4502 -0.1057 0.8866
vn 0.4500 0.2518 -0.8568
vn -0.4727 -0.1371 -0.8705
vn -0.9994 0.0139 -0.0308
vn -0.5080 0.1604 0.8463
vn 0.4919 0.1423 0.8589
vn 0.9997 -0.0224 -0.0134
vn 0.4890 -0.1534 -0.8587
vn -0.3608 0.6802 0.6381
vn -0.4510 0.3399 -0.8253
vn 0.4653 0.3424 -0.8163
vn 0.2827 -0.7853 0.5508
vn -0.9999 -0.0025 -0.0103
vn 0.9999 0.0025 0.0103
vn -0.4249 -0.5200 0.7410
vn -0.4809 -0.0439 0.8757
vn 0.4136 -0.5174 0.7491
vn 0.4630 -0.0415 0.8854
vn 0.6050 -0.2851 0.7435
vn -0.6182 -0.2883 0.7312
vn -0.4561 -0.2942 -0.8399
vn -0.9999 0.0019 0.0154
vn -0.4522 0.3086 0.8369
vn 0.4324 0.3114 0.8462
vn 0.9993 0.0082 0.0362
vn 0.4756 -0.2912 -0.8300
vn 0.5045 0.0414 -0.8624
vn 0.9999 0.0026 0.0103
vn 0.4869 -0.0433 0.8724
vn -0.5044 -0.0459 0.8622
vn -0.9999 -0.0026 -0.0104
vn -0.4869 0.0387 -0.8726
vn 0.2159 -0.9329 0.2882
vn 0.2109 -0.9280 0.3071
vn 0.0573 -0.9927 0.1059
vn -0.0656 -0.9935 -0.0928
vn 0.3227 0.7539 0.5722
vn 0.0759 -0.9929 -0.0913
vn 0.0258 -0.9993 -0.0287
vn -0.0511 -0.9932 0.1047
vn 0.3420 0.6824 0.6460
vn -0.9999 -0.0024 -0.0108
vn 0.9999 0.0024 0.0108
vn -0.2876 -0.7874 0.5453
vn 0.1774 -0.9226 0.3426
vn -0.1767 -0.9240 0.3390
vn -0.2139 0.9347 0.2838
vn 0.9398 0.1161 0.3213
vn 0.0262 0.9992 -0.0290
vn -0.2095 0.9297 0.3030
vn -0.3406 -0.7518 0.5646
vn 0.9999 -0.0030 0.0106
vn -0.9459 0.1208 0.3012
vn 0.0014 1.0000 0.0084
vn -0.0172 0.9994 -0.0294
vn -0.0167 0.9994 -0.0292
vn 0.0069 0.9999 0.0085
vn 0.4728 0.4607 -0.7511
vn -0.9999 0.0030 -0.0106
vn 0.4352 0.2493 0.8651
vn 0.4459 -0.2901 -0.8468
vn -0.4305 -0.2874 -0.8556
vn -0.4511 0.2521 0.8561
vn -0.9995 -0.0062 -0.0311
vn -0.4530 0.4659 -0.7601
vn -0.4794 -0.4984 0.7223
vn 0.9995 -0.0299 -0.0029
vn -0.9996 -0.0186 -0.0229
vn 0.4599 -0.5035 0.7315
vn -0.4351 0.7505 -0.4975
vn 0.4500 -0.8025 0.3919
vn 0.4647 0.7723 -0.4331
vn -0.4486 0.7782 -0.4395
vn -0.4653 -0.7968 0.3854
vn 0.9997 -0.0204 -0.0162
vn -0.9996 -0.0199 -0.0220
vn -0.4558 -0.7690 0.4481
vn 0.9997 -0.0152 -0.0201
vn -0.9993 -0.0028 -0.0383
vn 0.4396 -0.7739 0.4559
vn 0.4519 0.7455 -0.4898
vn -0.4340 -0.2497 -0.8656
vn 0.4528 -0.2130 0.8658
vn 0.4682 0.1663 -0.8678
vn -0.4487 0.1694 -0.8775
vn -0.4725 -0.2099 0.8560
vn 0.9996 -0.0268 -0.0001
vn -0.0034 -0.9964 -0.0846
vn -0.4679 0.1077 0.8772
vn 0.9963 -0.0858 0.0039
vn -0.9965 -0.0818 -0.0183
vn 0.4502 0.1057 0.8866
vn 0.4500 -0.2518 -0.8568
vn -0.4727 0.1371 -0.8705
vn -0.9994 -0.0139 -0.0308
vn -0.5080 -0.1604 0.8463
vn 0.4919 -0.1423 0.8589
vn 0.9997 0.0224 -0.0134
vn 0.4890 0.1534 -0.8587
vn -0.3608 -0.6802 0.6381
vn -0.4510 -0.3399 -0.8253
vn 0.4653 -0.3424 -0.8163
vn 0.2827 0.7853 0.5508
vn -0.9999 0.0025 -0.0103
vn 0.9999 -0.0025 0.0103
vn -0.4249 0.5200 0.7410
vn -0.4809 0.0439 0.8757
vn 0.4136 0.5174 0.7491
vn 0.4630 0.0415 0.8854
vn 0.6050 0.2851 0.7435
vn -0.6182 0.2883 0.7312
vn -0.4561 0.2942 -0.8399
vn -0.9999 -0.0019 0.0154
vn -0.4522 -0.3086 0.8369
vn 0.4324 -0.3114 0.8462
vn 0.9993 -0.0082 0.0362
vn 0.4756 0.2912 -0.8300
vn 0.5045 -0.0414 -0.8624
vn 0.9999 -0.0026 0.0103
vn 0.4869 0.0433 0.8724
vn -0.5044 0.0459 0.8622
vn -0.9999 0.0026 -0.0104
vn -0.4869 -0.0387 -0.8726
vn 0.2159 0.9329 0.2882
vn 0.2109 0.9280 0.3071
vn 0.0573 0.9927 0.1059
vn -0.0656 0.9935 -0.0928
vn 0.3227 -0.7539 0.5722
vn 0.0759 0.9929 -0.0913
vn 0.0258 0.9993 -0.0287
vn -0.0511 0.9932 0.1047
vn 0.3420 -0.6824 0.6460
vn -0.9999 0.0024 -0.0108
vn 0.9999 -0.0024 0.0108
vn -0.2876 0.7874 0.5453
vn 0.1774 0.9226 0.3426
vn -0.1767 0.9240 0.3390
usemtl Material.002
s off
f 70/1/1 69/2/1 81/3/1 82/4/1
f 4/5/2 2/6/2 85/7/2 88/8/2
f 10/9/3 77/10/3 76/11/3 9/12/3
f 67/13/4 66/14/4 74/15/4 79/16/4
f 84/17/5 1/18/5 90/19/5 86/20/5
f 55/21/6 54/22/6 13/23/6 14/24/6
f 1/18/7 3/25/7 87/26/7 90/19/7
f 11/27/8 78/28/8 77/10/8 10/9/8
f 9/12/9 76/11/9 75/29/9 8/30/9
f 6/31/10 73/32/10 78/28/10 11/27/10
f 8/30/11 75/29/11 72/33/11 7/34/11
f 13/23/12 12/35/12 18/36/12 19/37/12
f 57/38/13 56/39/13 16/40/13 17/41/13
f 58/42/14 55/21/14 14/24/14 15/43/14
f 54/22/15 59/44/15 12/35/15 13/23/15
f 59/44/16 57/38/16 17/41/16 12/35/16
f 56/39/17 58/42/17 15/43/17 16/40/17
f 23/45/18 22/46/18 28/47/18 29/48/18
f 12/35/19 17/41/19 23/45/19 18/36/19
f 16/40/20 15/43/20 21/49/20 22/46/20
f 14/24/21 13/23/21 19/37/21 20/50/21
f 17/41/22 16/40/22 22/46/22 23/45/22
f 15/43/23 14/24/23 20/50/23 21/49/23
f 24/51/24 29/48/24 35/52/24 30/53/24
f 21/49/25 20/50/25 26/54/25 27/55/25
f 19/37/26 18/36/26 24/51/26 25/56/26
f 18/36/27 23/45/27 29/48/27 24/51/27
f 22/46/28 21/49/28 27/55/28 28/47/28
f 20/50/29 19/37/29 25/56/29 26/54/29
f 35/52/30 34/57/30 40/58/30 41/59/30
f 28/47/31 27/55/31 33/60/31 34/57/31
f 26/54/32 25/56/32 31/61/32 32/62/32
f 29/48/33 28/47/33 34/57/33 35/52/33
f 27/55/34 26/54/34 32/62/34 33/60/34
f 25/56/35 24/51/35 30/53/35 31/61/35
f 36/63/36 41/59/36 47/64/36 42/65/36
f 33/60/37 32/62/37 38/66/37 39/67/37
f 31/61/38 30/53/38 36/63/38 37/68/38
f 30/53/39 35/52/39 41/59/39 36/63/39
f 34/57/40 33/60/40 39/67/40 40/58/40
f 32/62/41 31/61/41 37/68/41 38/66/41
f 43/69/42 42/65/42 47/64/42 46/70/42 45/71/42 44/72/42
f 40/58/43 39/67/43 45/71/43 46/70/43
f 38/66/44 37/68/44 43/69/44 44/72/44
f 41/59/45 40/58/45 46/70/45 47/64/45
f 39/67/46 38/66/46 44/72/46 45/71/46
f 37/68/47 36/63/47 42/65/47 43/69/47
f 186/73/48 53/74/48 48/75/48 181/76/48
f 185/77/49 52/78/49 53/74/49 186/73/49
f 184/79/50 51/80/50 52/78/50 185/77/50
f 183/81/51 50/82/51 51/80/51 184/79/51
f 182/83/52 49/84/52 50/82/52 183/81/52
f 181/76/53 48/75/53 49/84/53 182/83/53
f 86/85/54 90/86/54 64/87/54 63/88/54
f 6/31/55 11/27/55 57/38/55 59/44/55
f 7/34/56 6/31/56 59/44/56 54/22/56
f 62/89/57 60/90/57 61/91/57 63/92/57
f 11/27/58 10/9/58 56/39/58 57/38/58
f 8/30/59 7/34/59 54/22/59 55/21/59
f 10/9/60 9/12/60 5/93/60 3/94/60
f 58/42/61 56/39/61 1/95/61 84/96/61
f 9/12/62 8/30/62 4/97/62 5/93/62
f 55/21/63 58/42/63 84/96/63 2/98/63
f 8/30/64 55/21/64 2/98/64 4/97/64
f 56/39/65 10/9/65 3/94/65 1/95/65
f 53/74/66 71/99/66 66/100/66 48/75/66
f 52/78/67 70/101/67 71/99/67 53/74/67
f 51/80/68 69/102/68 70/101/68 52/78/68
f 50/82/69 68/103/69 69/102/69 51/80/69
f 49/84/70 67/104/70 68/103/70 50/82/70
f 48/75/71 66/100/71 67/104/71 49/84/71
f 74/15/72 73/105/72 72/106/72 79/16/72
f 79/16/73 72/106/73 75/107/73 80/108/73
f 80/108/74 75/107/74 76/109/74 81/3/74
f 81/3/75 76/109/75 77/110/75 82/4/75
f 82/4/76 77/110/76 78/111/76 83/112/76
f 83/112/77 78/111/77 73/105/77 74/15/77
f 69/2/78 68/113/78 80/108/78 81/3/78
f 66/14/79 71/114/79 83/112/79 74/15/79
f 5/115/80 4/5/80 88/8/80 89/116/80
f 68/113/81 67/13/81 79/16/81 80/108/81
f 2/6/82 84/17/82 86/20/82 85/7/82
f 71/114/83 70/1/83 82/4/83 83/112/83
f 7/34/84 72/33/84 73/32/84 6/31/84
f 3/25/85 5/115/85 89/116/85 87/26/85
f 85/117/86 86/85/86 63/88/86 61/118/86
f 90/86/87 87/119/87 65/120/87 64/87/87
f 88/121/88 85/117/88 61/118/88 60/122/88
f 65/123/89 62/89/89 63/92/89 64/124/89
f 89/125/90 88/121/90 60/122/90 62/126/90
f 87/119/91 89/125/91 62/126/91 65/120/91
f 160/127/92 172/128/92 171/129/92 159/130/92
f 94/131/93 178/132/93 175/133/93 92/134/93
f 100/135/94 99/136/94 166/137/94 167/138/94
f 157/139/95 169/140/95 164/141/95 156/142/95
f 174/143/96 176/144/96 180/145/96 91/146/96
f 145/147/97 104/148/97 103/149/97 144/150/97
f 91/146/98 180/145/98 177/151/98 93/152/98
f 101/153/99 100/135/99 167/138/99 168/154/99
f 99/136/100 98/155/100 165/156/100 166/137/100
f 96/157/101 101/153/101 168/154/101 163/158/101
f 98/155/102 97/159/102 162/160/102 165/156/102
f 103/149/103 109/161/103 108/162/103 102/163/103
f 147/164/104 107/165/104 106/166/104 146/167/104
f 148/168/105 105/169/105 104/148/105 145/147/105
f 144/150/106 103/149/106 102/163/106 149/170/106
f 149/170/107 102/163/107 107/165/107 147/164/107
f 146/167/108 106/166/108 105/169/108 148/168/108
f 113/171/109 119/172/109 118/173/109 112/174/109
f 102/163/110 108/162/110 113/171/110 107/165/110
f 106/166/111 112/174/111 111/175/111 105/169/111
f 104/148/112 110/176/112 109/161/112 103/149/112
f 107/165/113 113/171/113 112/174/113 106/166/113
f 105/169/114 111/175/114 110/176/114 104/148/114
f 114/177/115 120/178/115 125/179/115 119/172/115
f 111/175/116 117/180/116 116/181/116 110/176/116
f 109/161/117 115/182/117 114/177/117 108/162/117
f 108/162/118 114/177/118 119/172/118 113/171/118
f 112/174/119 118/173/119 117/180/119 111/175/119
f 110/176/120 116/181/120 115/182/120 109/161/120
f 125/179/121 131/183/121 130/184/121 124/185/121
f 118/173/122 124/185/122 123/186/122 117/180/122
f 116/181/123 122/187/123 121/188/123 115/182/123
f 119/172/124 125/179/124 124/185/124 118/173/124
f 117/180/125 123/186/125 122/187/125 116/181/125
f 115/182/126 121/188/126 120/178/126 114/177/126
f 126/189/127 132/190/127 137/191/127 131/183/127
f 123/186/128 129/192/128 128/193/128 122/187/128
f 121/188/129 127/194/129 126/189/129 120/178/129
f 120/178/130 126/189/130 131/183/130 125/179/130
f 124/185/131 130/184/131 129/192/131 123/186/131
f 122/187/132 128/193/132 127/194/132 121/188/132
f 133/195/133 134/196/133 135/197/133 136/198/133 137/191/133 132/190/133
f 130/184/134 136/198/134 135/197/134 129/192/134
f 128/193/135 134/196/135 133/195/135 127/194/135
f 131/183/136 137/191/136 136/198/136 130/184/136
f 129/192/137 135/197/137 134/196/137 128/193/137
f 127/194/138 133/195/138 132/190/138 126/189/138
f 186/73/139 181/76/139 138/199/139 143/200/139
f 185/77/140 186/73/140 143/200/140 142/201/140
f 184/79/141 185/77/141 142/201/141 141/202/141
f 183/81/142 184/79/142 141/202/142 140/203/142
f 182/83/143 183/81/143 140/203/143 139/204/143
f 181/76/144 182/83/144 139/204/144 138/199/144
f 176/205/145 153/206/145 154/207/145 180/208/145
f 96/157/146 149/170/146 147/164/146 101/153/146
f 97/159/147 144/150/147 149/170/147 96/157/147
f 152/209/148 153/210/148 151/211/148 150/212/148
f 101/153/149 147/164/149 146/167/149 100/135/149
f 98/155/150 145/147/150 144/150/150 97/159/150
f 100/135/151 93/213/151 95/214/151 99/136/151
f 148/168/152 174/215/152 91/216/152 146/167/152
f 99/136/153 95/214/153 94/217/153 98/155/153
f 145/147/154 92/218/154 174/215/154 148/168/154
f 98/155/155 94/217/155 92/218/155 145/147/155
f 146/167/156 91/216/156 93/213/156 100/135/156
f 143/200/157 138/199/157 156/219/157 161/220/157
f 142/201/158 143/200/158 161/220/158 160/221/158
f 141/202/159 142/201/159 160/221/159 159/222/159
f 140/203/160 141/202/160 159/222/160 158/223/160
f 139/204/161 140/203/161 158/223/161 157/224/161
f 138/199/162 139/204/162 157/224/162 156/219/162
f 164/141/163 169/140/163 162/225/163 163/226/163
f 169/140/164 170/227/164 165/228/164 162/225/164
f 170/227/165 171/129/165 166/229/165 165/228/165
f 171/129/166 172/128/166 167/230/166 166/229/166
f 172/128/167 173/231/167 168/232/167 167/230/167
f 173/231/168 164/141/168 163/226/168 168/232/168
f 159/130/169 171/129/169 170/227/169 158/233/169
f 156/142/170 164/141/170 173/231/170 161/234/170
f 95/235/171 179/236/171 178/132/171 94/131/171
f 158/233/172 170/227/172 169/140/172 157/139/172
f 92/134/173 175/133/173 176/144/173 174/143/173
f 161/234/174 173/231/174 172/128/174 160/127/174
f 97/159/175 96/157/175 163/158/175 162/160/175
f 93/152/176 177/151/176 179/236/176 95/235/176
f 175/237/177 151/238/177 153/206/177 176/205/177
f 180/208/178 154/207/178 155/239/178 177/240/178
f 178/241/179 150/242/179 151/238/179 175/237/179
f 155/243/180 154/244/180 153/210/180 152/209/180
f 179/245/181 152/246/181 150/242/181 178/241/181
f 177/240/182 155/239/182 152/246/182 179/245/182
