# Blender v2.79 (sub 0) OBJ File: ''
# www.blender.org
mtllib BRIDGE 1.mtl
o Cube.001
v 0.224908 -0.069583 -0.000000
v 0.224908 0.069583 0.000000
v 0.224908 0.069583 1.000000
v 0.224908 -0.069583 1.000000
v -0.317166 0.069583 1.000000
v -0.317166 -0.069583 1.000000
v -0.317166 -0.069583 -0.000000
v -0.317166 0.069583 0.000000
v -0.038386 -0.213612 0.833908
v -0.038386 0.491639 0.787282
v 0.062792 0.491639 0.845696
v 0.022412 -0.213612 0.869010
v 0.062792 0.491639 0.962526
v 0.022412 -0.213612 0.939213
v -0.038386 0.491639 1.020941
v -0.038386 -0.213612 0.974315
v -0.139564 0.491639 0.962526
v -0.099184 -0.213612 0.939213
v -0.139564 0.491639 0.845696
v -0.099184 -0.213612 0.869010
v 0.002355 -3.415356 0.880589
v -0.038386 -3.415356 0.857068
v -0.079127 -3.415356 0.880589
v -0.079127 -3.415356 0.927633
v 0.002355 -3.415356 0.927633
v -0.038386 -3.415356 0.951155
v -0.317166 0.375974 0.896062
v 0.277990 0.375974 0.896062
v 0.277990 0.339982 0.916842
v -0.317166 0.339982 0.916842
v 0.277990 0.339982 0.958402
v -0.317166 0.339982 0.958402
v 0.277990 0.375974 0.979182
v -0.317166 0.375974 0.979182
v 0.277990 0.411966 0.958402
v -0.317166 0.411966 0.958402
v 0.277990 0.411966 0.916842
v -0.317166 0.411966 0.916842
v 0.224908 -0.069583 -1.000000
v 0.224908 0.069583 -1.000000
v -0.317166 -0.069583 -1.000000
v -0.317166 0.069583 -1.000000
v -0.038386 -0.213612 -0.833908
v 0.022412 -0.213612 -0.869010
v 0.062792 0.491639 -0.845696
v -0.038386 0.491639 -0.787282
v 0.022412 -0.213612 -0.939213
v 0.062792 0.491639 -0.962526
v -0.038386 -0.213612 -0.974315
v -0.038386 0.491639 -1.020941
v -0.099184 -0.213612 -0.939213
v -0.139564 0.491639 -0.962526
v -0.139564 0.491639 -0.845696
v -0.099184 -0.213612 -0.869010
v -0.038386 -3.415356 -0.857068
v 0.002355 -3.415356 -0.880589
v -0.079127 -3.415356 -0.927633
v -0.079127 -3.415356 -0.880589
v 0.002355 -3.415356 -0.927633
v -0.038386 -3.415356 -0.951155
v -0.317166 0.375974 -0.896062
v -0.317166 0.339982 -0.916842
v 0.277990 0.339982 -0.916842
v 0.277990 0.375974 -0.896062
v -0.317166 0.339982 -0.958402
v 0.277990 0.339982 -0.958402
v -0.317166 0.375974 -0.979182
v 0.277990 0.375974 -0.979182
v -0.317166 0.411966 -0.958402
v 0.277990 0.411966 -0.958402
v 0.277990 0.411966 -0.916842
v -0.317166 0.411966 -0.916842
v 0.820063 -0.069583 -0.000000
v 0.820063 0.069583 0.000000
v 0.820063 0.069583 1.000000
v 0.820063 -0.069583 1.000000
v 0.277990 0.069583 1.000000
v 0.277990 -0.069583 1.000000
v 0.277990 -0.069583 -0.000000
v 0.277990 0.069583 0.000000
v 0.556770 -0.213612 0.833908
v 0.556770 0.491639 0.787282
v 0.657947 0.491639 0.845696
v 0.617568 -0.213612 0.869010
v 0.657947 0.491639 0.962526
v 0.617568 -0.213612 0.939213
v 0.556770 0.491639 1.020941
v 0.556770 -0.213612 0.974315
v 0.455592 0.491639 0.962526
v 0.495972 -0.213612 0.939213
v 0.455592 0.491639 0.845696
v 0.495972 -0.213612 0.869010
v 0.597511 -3.415356 0.880589
v 0.556770 -3.415356 0.857068
v 0.516029 -3.415356 0.880589
v 0.516029 -3.415356 0.927633
v 0.597511 -3.415356 0.927633
v 0.556770 -3.415356 0.951155
v 0.277990 0.375974 0.896062
v 0.873146 0.375974 0.896062
v 0.873146 0.339982 0.916842
v 0.277990 0.339982 0.916842
v 0.873146 0.339982 0.958402
v 0.277990 0.339982 0.958402
v 0.873146 0.375974 0.979182
v 0.277990 0.375974 0.979182
v 0.873146 0.411966 0.958402
v 0.277990 0.411966 0.958402
v 0.873146 0.411966 0.916842
v 0.277990 0.411966 0.916842
v 0.820063 -0.069583 -1.000000
v 0.820063 0.069583 -1.000000
v 0.277990 -0.069583 -1.000000
v 0.277990 0.069583 -1.000000
v 0.556770 -0.213612 -0.833908
v 0.617568 -0.213612 -0.869010
v 0.657947 0.491639 -0.845696
v 0.556770 0.491639 -0.787282
v 0.617568 -0.213612 -0.939213
v 0.657947 0.491639 -0.962526
v 0.556770 -0.213612 -0.974315
v 0.556770 0.491639 -1.020941
v 0.495972 -0.213612 -0.939213
v 0.455592 0.491639 -0.962526
v 0.455592 0.491639 -0.845696
v 0.495972 -0.213612 -0.869010
v 0.556770 -3.415356 -0.857068
v 0.597511 -3.415356 -0.880589
v 0.516029 -3.415356 -0.927633
v 0.516029 -3.415356 -0.880589
v 0.597511 -3.415356 -0.927633
v 0.556770 -3.415356 -0.951155
v 0.277990 0.375974 -0.896062
v 0.277990 0.339982 -0.916842
v 0.873146 0.339982 -0.916842
v 0.873146 0.375974 -0.896062
v 0.277990 0.339982 -0.958402
v 0.873146 0.339982 -0.958402
v 0.277990 0.375974 -0.979182
v 0.873146 0.375974 -0.979182
v 0.277990 0.411966 -0.958402
v 0.873146 0.411966 -0.958402
v 0.873146 0.411966 -0.916842
v 0.277990 0.411966 -0.916842
v 1.415219 -0.069583 -0.000000
v 1.415219 0.069583 0.000000
v 1.415219 0.069583 1.000000
v 1.415219 -0.069583 1.000000
v 0.873145 0.069583 1.000000
v 0.873145 -0.069583 1.000000
v 0.873145 -0.069583 -0.000000
v 0.873145 0.069583 0.000000
v 1.151925 -0.213612 0.833908
v 1.151925 0.491639 0.787282
v 1.253103 0.491639 0.845696
v 1.212723 -0.213612 0.869010
v 1.253103 0.491639 0.962526
v 1.212723 -0.213612 0.939213
v 1.151925 0.491639 1.020941
v 1.151925 -0.213612 0.974315
v 1.050748 0.491639 0.962526
v 1.091128 -0.213612 0.939213
v 1.050748 0.491639 0.845696
v 1.091128 -0.213612 0.869010
v 1.192667 -3.415356 0.880589
v 1.151925 -3.415356 0.857068
v 1.111184 -3.415356 0.880589
v 1.111184 -3.415356 0.927633
v 1.192667 -3.415356 0.927633
v 1.151925 -3.415356 0.951155
v 0.873145 0.375974 0.896062
v 1.468301 0.375974 0.896062
v 1.468301 0.339982 0.916842
v 0.873145 0.339982 0.916842
v 1.468301 0.339982 0.958402
v 0.873145 0.339982 0.958402
v 1.468301 0.375974 0.979182
v 0.873145 0.375974 0.979182
v 1.468301 0.411966 0.958402
v 0.873145 0.411966 0.958402
v 1.468301 0.411966 0.916842
v 0.873145 0.411966 0.916842
v 1.415219 -0.069583 -1.000000
v 1.415219 0.069583 -1.000000
v 0.873145 -0.069583 -1.000000
v 0.873145 0.069583 -1.000000
v 1.151925 -0.213612 -0.833908
v 1.212723 -0.213612 -0.869010
v 1.253103 0.491639 -0.845696
v 1.151925 0.491639 -0.787282
v 1.212723 -0.213612 -0.939213
v 1.253103 0.491639 -0.962526
v 1.151925 -0.213612 -0.974315
v 1.151925 0.491639 -1.020941
v 1.091128 -0.213612 -0.939213
v 1.050748 0.491639 -0.962526
v 1.050748 0.491639 -0.845696
v 1.091128 -0.213612 -0.869010
v 1.151925 -3.415356 -0.857068
v 1.192667 -3.415356 -0.880589
v 1.111184 -3.415356 -0.927633
v 1.111184 -3.415356 -0.880589
v 1.192667 -3.415356 -0.927633
v 1.151925 -3.415356 -0.951155
v 0.873145 0.375974 -0.896062
v 0.873145 0.339982 -0.916842
v 1.468301 0.339982 -0.916842
v 1.468301 0.375974 -0.896062
v 0.873145 0.339982 -0.958402
v 1.468301 0.339982 -0.958402
v 0.873145 0.375974 -0.979182
v 1.468301 0.375974 -0.979182
v 0.873145 0.411966 -0.958402
v 1.468301 0.411966 -0.958402
v 1.468301 0.411966 -0.916842
v 0.873145 0.411966 -0.916842
v 2.010375 -0.069583 -0.000000
v 2.010375 0.069583 0.000000
v 2.010375 0.069583 1.000000
v 2.010375 -0.069583 1.000000
v 1.468301 0.069583 1.000000
v 1.468301 -0.069583 1.000000
v 1.468301 -0.069583 -0.000000
v 1.468301 0.069583 0.000000
v 1.747081 -0.213612 0.833908
v 1.747081 0.491639 0.787282
v 1.848259 0.491639 0.845696
v 1.807879 -0.213612 0.869010
v 1.848259 0.491639 0.962526
v 1.807879 -0.213612 0.939213
v 1.747081 0.491639 1.020941
v 1.747081 -0.213612 0.974315
v 1.645904 0.491639 0.962526
v 1.686283 -0.213612 0.939213
v 1.645904 0.491639 0.845696
v 1.686283 -0.213612 0.869010
v 1.787822 -3.415356 0.880589
v 1.747081 -3.415356 0.857068
v 1.706340 -3.415356 0.880589
v 1.706340 -3.415356 0.927633
v 1.787822 -3.415356 0.927633
v 1.747081 -3.415356 0.951155
v 1.468301 0.375974 0.896062
v 2.063457 0.375974 0.896062
v 2.063457 0.339982 0.916842
v 1.468301 0.339982 0.916842
v 2.063457 0.339982 0.958402
v 1.468301 0.339982 0.958402
v 2.063457 0.375974 0.979182
v 1.468301 0.375974 0.979182
v 2.063457 0.411966 0.958402
v 1.468301 0.411966 0.958402
v 2.063457 0.411966 0.916842
v 1.468301 0.411966 0.916842
v 2.010375 -0.069583 -1.000000
v 2.010375 0.069583 -1.000000
v 1.468301 -0.069583 -1.000000
v 1.468301 0.069583 -1.000000
v 1.747081 -0.213612 -0.833908
v 1.807879 -0.213612 -0.869010
v 1.848259 0.491639 -0.845696
v 1.747081 0.491639 -0.787282
v 1.807879 -0.213612 -0.939213
v 1.848259 0.491639 -0.962526
v 1.747081 -0.213612 -0.974315
v 1.747081 0.491639 -1.020941
v 1.686283 -0.213612 -0.939213
v 1.645904 0.491639 -0.962526
v 1.645904 0.491639 -0.845696
v 1.686283 -0.213612 -0.869010
v 1.747081 -3.415356 -0.857068
v 1.787822 -3.415356 -0.880589
v 1.706340 -3.415356 -0.927633
v 1.706340 -3.415356 -0.880589
v 1.787822 -3.415356 -0.927633
v 1.747081 -3.415356 -0.951155
v 1.468301 0.375974 -0.896062
v 1.468301 0.339982 -0.916842
v 2.063457 0.339982 -0.916842
v 2.063457 0.375974 -0.896062
v 1.468301 0.339982 -0.958402
v 2.063457 0.339982 -0.958402
v 1.468301 0.375974 -0.979182
v 2.063457 0.375974 -0.979182
v 1.468301 0.411966 -0.958402
v 2.063457 0.411966 -0.958402
v 2.063457 0.411966 -0.916842
v 1.468301 0.411966 -0.916842
v 2.605531 -0.069583 -0.000000
v 2.605531 0.069583 0.000000
v 2.605531 0.069583 1.000000
v 2.605531 -0.069583 1.000000
v 2.063457 0.069583 1.000000
v 2.063457 -0.069583 1.000000
v 2.063457 -0.069583 -0.000000
v 2.063457 0.069583 0.000000
v 2.342237 -0.213612 0.833908
v 2.342237 0.491639 0.787282
v 2.443415 0.491639 0.845696
v 2.403035 -0.213612 0.869010
v 2.443415 0.491639 0.962526
v 2.403035 -0.213612 0.939213
v 2.342237 0.491639 1.020941
v 2.342237 -0.213612 0.974315
v 2.241059 0.491639 0.962526
v 2.281439 -0.213612 0.939213
v 2.241059 0.491639 0.845696
v 2.281439 -0.213612 0.869010
v 2.382978 -3.415356 0.880589
v 2.342237 -3.415356 0.857068
v 2.301496 -3.415356 0.880589
v 2.301496 -3.415356 0.927633
v 2.382978 -3.415356 0.927633
v 2.342237 -3.415356 0.951155
v 2.063457 0.375974 0.896062
v 2.658612 0.375974 0.896062
v 2.658612 0.339982 0.916842
v 2.063457 0.339982 0.916842
v 2.658612 0.339982 0.958402
v 2.063457 0.339982 0.958402
v 2.658612 0.375974 0.979182
v 2.063457 0.375974 0.979182
v 2.658612 0.411966 0.958402
v 2.063457 0.411966 0.958402
v 2.658612 0.411966 0.916842
v 2.063457 0.411966 0.916842
v 2.605531 -0.069583 -1.000000
v 2.605531 0.069583 -1.000000
v 2.063457 -0.069583 -1.000000
v 2.063457 0.069583 -1.000000
v 2.342237 -0.213612 -0.833908
v 2.403035 -0.213612 -0.869010
v 2.443415 0.491639 -0.845696
v 2.342237 0.491639 -0.787282
v 2.403035 -0.213612 -0.939213
v 2.443415 0.491639 -0.962526
v 2.342237 -0.213612 -0.974315
v 2.342237 0.491639 -1.020941
v 2.281439 -0.213612 -0.939213
v 2.241059 0.491639 -0.962526
v 2.241059 0.491639 -0.845696
v 2.281439 -0.213612 -0.869010
v 2.342237 -3.415356 -0.857068
v 2.382978 -3.415356 -0.880589
v 2.301496 -3.415356 -0.927633
v 2.301496 -3.415356 -0.880589
v 2.382978 -3.415356 -0.927633
v 2.342237 -3.415356 -0.951155
v 2.063457 0.375974 -0.896062
v 2.063457 0.339982 -0.916842
v 2.658612 0.339982 -0.916842
v 2.658612 0.375974 -0.896062
v 2.063457 0.339982 -0.958402
v 2.658612 0.339982 -0.958402
v 2.063457 0.375974 -0.979182
v 2.658612 0.375974 -0.979182
v 2.063457 0.411966 -0.958402
v 2.658612 0.411966 -0.958402
v 2.658612 0.411966 -0.916842
v 2.063457 0.411966 -0.916842
vt 0.946997 0.664001
vt 0.946997 0.669755
vt 0.945704 0.668056
vt 0.945905 0.666209
vt 0.944541 0.667929
vt 0.944741 0.666082
vt 0.943449 0.664383
vt 0.943449 0.670137
vt 0.942373 0.690989
vt 0.943368 0.712988
vt 0.943292 0.713011
vt 0.942276 0.691004
vt 0.943433 0.712998
vt 0.942471 0.690983
vt 0.943369 0.713000
vt 0.942373 0.690989
vt 0.943305 0.713013
vt 0.942276 0.691004
vt 0.943446 0.712993
vt 0.942471 0.690983
vt 0.941073 0.664075
vt 0.941155 0.664001
vt 0.941243 0.664055
vt 0.941076 0.664112
vt 0.941243 0.664092
vt 0.941160 0.664112
vt 0.941072 0.663999
vt 0.972122 0.663999
vt 0.972122 0.713015
vt 0.941072 0.713015
vt 0.941072 0.663999
vt 0.972122 0.663999
vt 0.972122 0.713015
vt 0.941072 0.713015
vt 0.941072 0.663999
vt 0.972122 0.663999
vt 0.972122 0.713015
vt 0.941072 0.713015
vt 0.941072 0.663999
vt 0.972122 0.663999
vt 0.972122 0.713015
vt 0.941072 0.713015
vt 0.956597 0.713015
vt 0.970042 0.700761
vt 0.970042 0.676253
vt 0.956597 0.663999
vt 0.943152 0.676253
vt 0.943152 0.700761
vt 0.941072 0.663999
vt 0.972122 0.663999
vt 0.972122 0.713015
vt 0.941072 0.713015
vt 0.941072 0.663999
vt 0.972122 0.663999
vt 0.972122 0.713015
vt 0.941072 0.713015
vt 0.956597 0.713015
vt 0.970042 0.700761
vt 0.970042 0.676253
vt 0.956597 0.663999
vt 0.943152 0.676253
vt 0.943152 0.700761
vt 0.945905 0.666209
vt 0.945704 0.668056
vt 0.944741 0.666082
vt 0.944541 0.667929
vt 0.942373 0.690989
vt 0.942276 0.691004
vt 0.943292 0.713011
vt 0.943368 0.712988
vt 0.942471 0.690983
vt 0.943433 0.712998
vt 0.942373 0.690989
vt 0.943369 0.713000
vt 0.942276 0.691004
vt 0.943305 0.713013
vt 0.943446 0.712993
vt 0.942471 0.690983
vt 0.941155 0.664001
vt 0.941073 0.664075
vt 0.941076 0.664112
vt 0.941243 0.664055
vt 0.941243 0.664092
vt 0.941160 0.664112
vt 0.941072 0.663999
vt 0.941072 0.713015
vt 0.972122 0.713015
vt 0.972122 0.663999
vt 0.941072 0.663999
vt 0.941072 0.713015
vt 0.972122 0.713015
vt 0.972122 0.663999
vt 0.941072 0.663999
vt 0.941072 0.713015
vt 0.972122 0.713015
vt 0.972122 0.663999
vt 0.941072 0.663999
vt 0.941072 0.713015
vt 0.972122 0.713015
vt 0.972122 0.663999
vt 0.956597 0.713015
vt 0.943152 0.700761
vt 0.943152 0.676253
vt 0.956597 0.663999
vt 0.970042 0.676253
vt 0.970042 0.700761
vt 0.941072 0.663999
vt 0.941072 0.713015
vt 0.972122 0.713015
vt 0.972122 0.663999
vt 0.941072 0.663999
vt 0.941072 0.713015
vt 0.972122 0.713015
vt 0.972122 0.663999
vt 0.956597 0.713015
vt 0.943152 0.700761
vt 0.943152 0.676253
vt 0.956597 0.663999
vt 0.970042 0.676253
vt 0.970042 0.700761
vt 0.946997 0.664001
vt 0.946997 0.669755
vt 0.945704 0.668056
vt 0.945905 0.666209
vt 0.944541 0.667929
vt 0.944741 0.666082
vt 0.943449 0.664383
vt 0.943449 0.670137
vt 0.942373 0.690989
vt 0.943368 0.712988
vt 0.943292 0.713011
vt 0.942276 0.691004
vt 0.943433 0.712998
vt 0.942471 0.690983
vt 0.943369 0.713000
vt 0.942373 0.690989
vt 0.943305 0.713013
vt 0.942276 0.691004
vt 0.943446 0.712993
vt 0.942471 0.690983
vt 0.941073 0.664075
vt 0.941155 0.664001
vt 0.941243 0.664055
vt 0.941076 0.664112
vt 0.941243 0.664092
vt 0.941160 0.664112
vt 0.941072 0.663999
vt 0.972122 0.663999
vt 0.972122 0.713015
vt 0.941072 0.713015
vt 0.941072 0.663999
vt 0.972122 0.663999
vt 0.972122 0.713015
vt 0.941072 0.713015
vt 0.941072 0.663999
vt 0.972122 0.663999
vt 0.972122 0.713015
vt 0.941072 0.713015
vt 0.941072 0.663999
vt 0.972122 0.663999
vt 0.972122 0.713015
vt 0.941072 0.713015
vt 0.956597 0.713015
vt 0.970042 0.700761
vt 0.970042 0.676253
vt 0.956597 0.663999
vt 0.943152 0.676253
vt 0.943152 0.700761
vt 0.941072 0.663999
vt 0.972122 0.663999
vt 0.972122 0.713015
vt 0.941072 0.713015
vt 0.941072 0.663999
vt 0.972122 0.663999
vt 0.972122 0.713015
vt 0.941072 0.713015
vt 0.956597 0.713015
vt 0.970042 0.700761
vt 0.970042 0.676253
vt 0.956597 0.663999
vt 0.943152 0.676253
vt 0.943152 0.700761
vt 0.945905 0.666209
vt 0.945704 0.668056
vt 0.944741 0.666082
vt 0.944541 0.667929
vt 0.942373 0.690989
vt 0.942276 0.691004
vt 0.943292 0.713011
vt 0.943368 0.712988
vt 0.942471 0.690983
vt 0.943433 0.712998
vt 0.942373 0.690989
vt 0.943369 0.713000
vt 0.942276 0.691004
vt 0.943305 0.713013
vt 0.943446 0.712993
vt 0.942471 0.690983
vt 0.941155 0.664001
vt 0.941073 0.664075
vt 0.941076 0.664112
vt 0.941243 0.664055
vt 0.941243 0.664092
vt 0.941160 0.664112
vt 0.941072 0.663999
vt 0.941072 0.713015
vt 0.972122 0.713015
vt 0.972122 0.663999
vt 0.941072 0.663999
vt 0.941072 0.713015
vt 0.972122 0.713015
vt 0.972122 0.663999
vt 0.941072 0.663999
vt 0.941072 0.713015
vt 0.972122 0.713015
vt 0.972122 0.663999
vt 0.941072 0.663999
vt 0.941072 0.713015
vt 0.972122 0.713015
vt 0.972122 0.663999
vt 0.956597 0.713015
vt 0.943152 0.700761
vt 0.943152 0.676253
vt 0.956597 0.663999
vt 0.970042 0.676253
vt 0.970042 0.700761
vt 0.941072 0.663999
vt 0.941072 0.713015
vt 0.972122 0.713015
vt 0.972122 0.663999
vt 0.941072 0.663999
vt 0.941072 0.713015
vt 0.972122 0.713015
vt 0.972122 0.663999
vt 0.956597 0.713015
vt 0.943152 0.700761
vt 0.943152 0.676253
vt 0.956597 0.663999
vt 0.970042 0.676253
vt 0.970042 0.700761
vt 0.946997 0.664001
vt 0.946997 0.669755
vt 0.945704 0.668056
vt 0.945905 0.666209
vt 0.944541 0.667929
vt 0.944741 0.666082
vt 0.943449 0.664383
vt 0.943449 0.670137
vt 0.942373 0.690989
vt 0.943368 0.712988
vt 0.943292 0.713011
vt 0.942276 0.691004
vt 0.943433 0.712998
vt 0.942471 0.690983
vt 0.943369 0.713000
vt 0.942373 0.690989
vt 0.943305 0.713013
vt 0.942276 0.691004
vt 0.943446 0.712993
vt 0.942471 0.690983
vt 0.941073 0.664075
vt 0.941155 0.664001
vt 0.941243 0.664055
vt 0.941076 0.664112
vt 0.941243 0.664092
vt 0.941160 0.664112
vt 0.941072 0.663999
vt 0.972122 0.663999
vt 0.972122 0.713015
vt 0.941072 0.713015
vt 0.941072 0.663999
vt 0.972122 0.663999
vt 0.972122 0.713015
vt 0.941072 0.713015
vt 0.941072 0.663999
vt 0.972122 0.663999
vt 0.972122 0.713015
vt 0.941072 0.713015
vt 0.941072 0.663999
vt 0.972122 0.663999
vt 0.972122 0.713015
vt 0.941072 0.713015
vt 0.956597 0.713015
vt 0.970042 0.700761
vt 0.970042 0.676253
vt 0.956597 0.663999
vt 0.943152 0.676253
vt 0.943152 0.700761
vt 0.941072 0.663999
vt 0.972122 0.663999
vt 0.972122 0.713015
vt 0.941072 0.713015
vt 0.941072 0.663999
vt 0.972122 0.663999
vt 0.972122 0.713015
vt 0.941072 0.713015
vt 0.956597 0.713015
vt 0.970042 0.700761
vt 0.970042 0.676253
vt 0.956597 0.663999
vt 0.943152 0.676253
vt 0.943152 0.700761
vt 0.945905 0.666209
vt 0.945704 0.668056
vt 0.944741 0.666082
vt 0.944541 0.667929
vt 0.942373 0.690989
vt 0.942276 0.691004
vt 0.943292 0.713011
vt 0.943368 0.712988
vt 0.942471 0.690983
vt 0.943433 0.712998
vt 0.942373 0.690989
vt 0.943369 0.713000
vt 0.942276 0.691004
vt 0.943305 0.713013
vt 0.943446 0.712993
vt 0.942471 0.690983
vt 0.941155 0.664001
vt 0.941073 0.664075
vt 0.941076 0.664112
vt 0.941243 0.664055
vt 0.941243 0.664092
vt 0.941160 0.664112
vt 0.941072 0.663999
vt 0.941072 0.713015
vt 0.972122 0.713015
vt 0.972122 0.663999
vt 0.941072 0.663999
vt 0.941072 0.713015
vt 0.972122 0.713015
vt 0.972122 0.663999
vt 0.941072 0.663999
vt 0.941072 0.713015
vt 0.972122 0.713015
vt 0.972122 0.663999
vt 0.941072 0.663999
vt 0.941072 0.713015
vt 0.972122 0.713015
vt 0.972122 0.663999
vt 0.956597 0.713015
vt 0.943152 0.700761
vt 0.943152 0.676253
vt 0.956597 0.663999
vt 0.970042 0.676253
vt 0.970042 0.700761
vt 0.941072 0.663999
vt 0.941072 0.713015
vt 0.972122 0.713015
vt 0.972122 0.663999
vt 0.941072 0.663999
vt 0.941072 0.713015
vt 0.972122 0.713015
vt 0.972122 0.663999
vt 0.956597 0.713015
vt 0.943152 0.700761
vt 0.943152 0.676253
vt 0.956597 0.663999
vt 0.970042 0.676253
vt 0.970042 0.700761
vt 0.946997 0.664001
vt 0.946997 0.669755
vt 0.945704 0.668056
vt 0.945905 0.666209
vt 0.944541 0.667929
vt 0.944741 0.666082
vt 0.943449 0.664383
vt 0.943449 0.670137
vt 0.942373 0.690989
vt 0.943368 0.712988
vt 0.943292 0.713011
vt 0.942276 0.691004
vt 0.943433 0.712998
vt 0.942471 0.690983
vt 0.943369 0.713000
vt 0.942373 0.690989
vt 0.943305 0.713013
vt 0.942276 0.691004
vt 0.943446 0.712993
vt 0.942471 0.690983
vt 0.941073 0.664075
vt 0.941155 0.664001
vt 0.941243 0.664055
vt 0.941076 0.664112
vt 0.941243 0.664092
vt 0.941160 0.664112
vt 0.941072 0.663999
vt 0.972122 0.663999
vt 0.972122 0.713015
vt 0.941072 0.713015
vt 0.941072 0.663999
vt 0.972122 0.663999
vt 0.972122 0.713015
vt 0.941072 0.713015
vt 0.941072 0.663999
vt 0.972122 0.663999
vt 0.972122 0.713015
vt 0.941072 0.713015
vt 0.941072 0.663999
vt 0.972122 0.663999
vt 0.972122 0.713015
vt 0.941072 0.713015
vt 0.956597 0.713015
vt 0.970042 0.700761
vt 0.970042 0.676253
vt 0.956597 0.663999
vt 0.943152 0.676253
vt 0.943152 0.700761
vt 0.941072 0.663999
vt 0.972122 0.663999
vt 0.972122 0.713015
vt 0.941072 0.713015
vt 0.941072 0.663999
vt 0.972122 0.663999
vt 0.972122 0.713015
vt 0.941072 0.713015
vt 0.956597 0.713015
vt 0.970042 0.700761
vt 0.970042 0.676253
vt 0.956597 0.663999
vt 0.943152 0.676253
vt 0.943152 0.700761
vt 0.945905 0.666209
vt 0.945704 0.668056
vt 0.944741 0.666082
vt 0.944541 0.667929
vt 0.942373 0.690989
vt 0.942276 0.691004
vt 0.943292 0.713011
vt 0.943368 0.712988
vt 0.942471 0.690983
vt 0.943433 0.712998
vt 0.942373 0.690989
vt 0.943369 0.713000
vt 0.942276 0.691004
vt 0.943305 0.713013
vt 0.943446 0.712993
vt 0.942471 0.690983
vt 0.941155 0.664001
vt 0.941073 0.664075
vt 0.941076 0.664112
vt 0.941243 0.664055
vt 0.941243 0.664092
vt 0.941160 0.664112
vt 0.941072 0.663999
vt 0.941072 0.713015
vt 0.972122 0.713015
vt 0.972122 0.663999
vt 0.941072 0.663999
vt 0.941072 0.713015
vt 0.972122 0.713015
vt 0.972122 0.663999
vt 0.941072 0.663999
vt 0.941072 0.713015
vt 0.972122 0.713015
vt 0.972122 0.663999
vt 0.941072 0.663999
vt 0.941072 0.713015
vt 0.972122 0.713015
vt 0.972122 0.663999
vt 0.956597 0.713015
vt 0.943152 0.700761
vt 0.943152 0.676253
vt 0.956597 0.663999
vt 0.970042 0.676253
vt 0.970042 0.700761
vt 0.941072 0.663999
vt 0.941072 0.713015
vt 0.972122 0.713015
vt 0.972122 0.663999
vt 0.941072 0.663999
vt 0.941072 0.713015
vt 0.972122 0.713015
vt 0.972122 0.663999
vt 0.956597 0.713015
vt 0.943152 0.700761
vt 0.943152 0.676253
vt 0.956597 0.663999
vt 0.970042 0.676253
vt 0.970042 0.700761
vt 0.946997 0.664001
vt 0.946997 0.669755
vt 0.945704 0.668056
vt 0.945905 0.666209
vt 0.944541 0.667929
vt 0.944741 0.666082
vt 0.943449 0.664383
vt 0.943449 0.670137
vt 0.942373 0.690989
vt 0.943368 0.712988
vt 0.943292 0.713011
vt 0.942276 0.691004
vt 0.943433 0.712998
vt 0.942471 0.690983
vt 0.943369 0.713000
vt 0.942373 0.690989
vt 0.943305 0.713013
vt 0.942276 0.691004
vt 0.943446 0.712993
vt 0.942471 0.690983
vt 0.941073 0.664075
vt 0.941155 0.664001
vt 0.941243 0.664055
vt 0.941076 0.664112
vt 0.941243 0.664092
vt 0.941160 0.664112
vt 0.941072 0.663999
vt 0.972122 0.663999
vt 0.972122 0.713015
vt 0.941072 0.713015
vt 0.941072 0.663999
vt 0.972122 0.663999
vt 0.972122 0.713015
vt 0.941072 0.713015
vt 0.941072 0.663999
vt 0.972122 0.663999
vt 0.972122 0.713015
vt 0.941072 0.713015
vt 0.941072 0.663999
vt 0.972122 0.663999
vt 0.972122 0.713015
vt 0.941072 0.713015
vt 0.956597 0.713015
vt 0.970042 0.700761
vt 0.970042 0.676253
vt 0.956597 0.663999
vt 0.943152 0.676253
vt 0.943152 0.700761
vt 0.941072 0.663999
vt 0.972122 0.663999
vt 0.972122 0.713015
vt 0.941072 0.713015
vt 0.941072 0.663999
vt 0.972122 0.663999
vt 0.972122 0.713015
vt 0.941072 0.713015
vt 0.956597 0.713015
vt 0.970042 0.700761
vt 0.970042 0.676253
vt 0.956597 0.663999
vt 0.943152 0.676253
vt 0.943152 0.700761
vt 0.945905 0.666209
vt 0.945704 0.668056
vt 0.944741 0.666082
vt 0.944541 0.667929
vt 0.942373 0.690989
vt 0.942276 0.691004
vt 0.943292 0.713011
vt 0.943368 0.712988
vt 0.942471 0.690983
vt 0.943433 0.712998
vt 0.942373 0.690989
vt 0.943369 0.713000
vt 0.942276 0.691004
vt 0.943305 0.713013
vt 0.943446 0.712993
vt 0.942471 0.690983
vt 0.941155 0.664001
vt 0.941073 0.664075
vt 0.941076 0.664112
vt 0.941243 0.664055
vt 0.941243 0.664092
vt 0.941160 0.664112
vt 0.941072 0.663999
vt 0.941072 0.713015
vt 0.972122 0.713015
vt 0.972122 0.663999
vt 0.941072 0.663999
vt 0.941072 0.713015
vt 0.972122 0.713015
vt 0.972122 0.663999
vt 0.941072 0.663999
vt 0.941072 0.713015
vt 0.972122 0.713015
vt 0.972122 0.663999
vt 0.941072 0.663999
vt 0.941072 0.713015
vt 0.972122 0.713015
vt 0.972122 0.663999
vt 0.956597 0.713015
vt 0.943152 0.700761
vt 0.943152 0.676253
vt 0.956597 0.663999
vt 0.970042 0.676253
vt 0.970042 0.700761
vt 0.941072 0.663999
vt 0.941072 0.713015
vt 0.972122 0.713015
vt 0.972122 0.663999
vt 0.941072 0.663999
vt 0.941072 0.713015
vt 0.972122 0.713015
vt 0.972122 0.663999
vt 0.956597 0.713015
vt 0.943152 0.700761
vt 0.943152 0.676253
vt 0.956597 0.663999
vt 0.970042 0.676253
vt 0.970042 0.700761
vn 1.0000 0.0000 0.0000
vn 0.0000 0.0000 1.0000
vn 0.0000 -1.0000 -0.0000
vn 0.0000 1.0000 0.0000
vn 0.4992 -0.0572 -0.8646
vn 0.9984 -0.0572 0.0000
vn 0.4992 -0.0572 0.8646
vn -0.4992 -0.0572 0.8646
vn -0.9984 -0.0572 0.0000
vn -0.4992 -0.0572 -0.8646
vn 0.5000 -0.0063 -0.8660
vn -1.0000 -0.0063 0.0000
vn 1.0000 -0.0063 0.0000
vn 0.5000 -0.0063 0.8660
vn -0.5000 -0.0063 0.8660
vn -0.5000 -0.0063 -0.8660
vn 0.0000 -0.5000 -0.8660
vn 0.0000 -0.5000 0.8660
vn 0.0000 0.5000 0.8660
vn 0.0000 0.5000 -0.8660
vn -1.0000 -0.0000 0.0000
vn 0.0000 0.0000 -1.0000
usemtl Material.001
s 1
f 1/1/1 2/2/1 3/3/1 4/4/1
f 4/4/2 3/3/2 5/5/2 6/6/2
f 7/7/3 1/1/3 4/4/3 6/6/3
f 2/2/4 8/8/4 5/5/4 3/3/4
f 9/9/5 10/10/5 11/11/5 12/12/5
f 12/12/6 11/11/6 13/13/6 14/14/6
f 14/14/7 13/13/7 15/15/7 16/16/7
f 16/16/8 15/15/8 17/17/8 18/18/8
f 11/11/4 10/10/4 19/19/4 17/17/4 15/15/4 13/13/4
f 18/18/9 17/17/9 19/19/9 20/20/9
f 20/20/10 19/19/10 10/10/10 9/9/10
f 9/9/11 12/12/11 21/21/11 22/22/11
f 18/18/12 20/20/12 23/23/12 24/24/12
f 12/12/13 14/14/13 25/25/13 21/21/13
f 14/14/14 16/16/14 26/26/14 25/25/14
f 16/16/15 18/18/15 24/24/15 26/26/15
f 20/20/16 9/9/16 22/22/16 23/23/16
f 27/27/17 28/28/17 29/29/17 30/30/17
f 30/31/3 29/32/3 31/33/3 32/34/3
f 32/35/18 31/36/18 33/37/18 34/38/18
f 34/39/19 33/40/19 35/41/19 36/42/19
f 29/43/1 28/44/1 37/45/1 35/46/1 33/47/1 31/48/1
f 36/49/4 35/50/4 37/51/4 38/52/4
f 38/53/20 37/54/20 28/55/20 27/56/20
f 27/57/21 30/58/21 32/59/21 34/60/21 36/61/21 38/62/21
f 6/6/21 5/5/21 8/8/21 7/7/21
f 1/1/1 39/63/1 40/64/1 2/2/1
f 39/63/22 41/65/22 42/66/22 40/64/22
f 7/7/3 41/65/3 39/63/3 1/1/3
f 2/2/4 40/64/4 42/66/4 8/8/4
f 43/67/7 44/68/7 45/69/7 46/70/7
f 44/68/6 47/71/6 48/72/6 45/69/6
f 47/71/5 49/73/5 50/74/5 48/72/5
f 49/73/10 51/75/10 52/76/10 50/74/10
f 45/69/4 48/72/4 50/74/4 52/76/4 53/77/4 46/70/4
f 51/75/9 54/78/9 53/77/9 52/76/9
f 54/78/8 43/67/8 46/70/8 53/77/8
f 43/67/14 55/79/14 56/80/14 44/68/14
f 51/75/12 57/81/12 58/82/12 54/78/12
f 44/68/13 56/80/13 59/83/13 47/71/13
f 47/71/11 59/83/11 60/84/11 49/73/11
f 49/73/16 60/84/16 57/81/16 51/75/16
f 54/78/15 58/82/15 55/79/15 43/67/15
f 61/85/18 62/86/18 63/87/18 64/88/18
f 62/89/3 65/90/3 66/91/3 63/92/3
f 65/93/17 67/94/17 68/95/17 66/96/17
f 67/97/20 69/98/20 70/99/20 68/100/20
f 63/101/1 66/102/1 68/103/1 70/104/1 71/105/1 64/106/1
f 69/107/4 72/108/4 71/109/4 70/110/4
f 72/111/19 61/112/19 64/113/19 71/114/19
f 61/115/21 72/116/21 69/117/21 67/118/21 65/119/21 62/120/21
f 41/65/21 7/7/21 8/8/21 42/66/21
f 73/121/1 74/122/1 75/123/1 76/124/1
f 76/124/2 75/123/2 77/125/2 78/126/2
f 79/127/3 73/121/3 76/124/3 78/126/3
f 74/122/4 80/128/4 77/125/4 75/123/4
f 81/129/5 82/130/5 83/131/5 84/132/5
f 84/132/6 83/131/6 85/133/6 86/134/6
f 86/134/7 85/133/7 87/135/7 88/136/7
f 88/136/8 87/135/8 89/137/8 90/138/8
f 83/131/4 82/130/4 91/139/4 89/137/4 87/135/4 85/133/4
f 90/138/9 89/137/9 91/139/9 92/140/9
f 92/140/10 91/139/10 82/130/10 81/129/10
f 81/129/11 84/132/11 93/141/11 94/142/11
f 90/138/12 92/140/12 95/143/12 96/144/12
f 84/132/13 86/134/13 97/145/13 93/141/13
f 86/134/14 88/136/14 98/146/14 97/145/14
f 88/136/15 90/138/15 96/144/15 98/146/15
f 92/140/16 81/129/16 94/142/16 95/143/16
f 99/147/17 100/148/17 101/149/17 102/150/17
f 102/151/3 101/152/3 103/153/3 104/154/3
f 104/155/18 103/156/18 105/157/18 106/158/18
f 106/159/19 105/160/19 107/161/19 108/162/19
f 101/163/1 100/164/1 109/165/1 107/166/1 105/167/1 103/168/1
f 108/169/4 107/170/4 109/171/4 110/172/4
f 110/173/20 109/174/20 100/175/20 99/176/20
f 99/177/21 102/178/21 104/179/21 106/180/21 108/181/21 110/182/21
f 78/126/21 77/125/21 80/128/21 79/127/21
f 73/121/1 111/183/1 112/184/1 74/122/1
f 111/183/22 113/185/22 114/186/22 112/184/22
f 79/127/3 113/185/3 111/183/3 73/121/3
f 74/122/4 112/184/4 114/186/4 80/128/4
f 115/187/7 116/188/7 117/189/7 118/190/7
f 116/188/6 119/191/6 120/192/6 117/189/6
f 119/191/5 121/193/5 122/194/5 120/192/5
f 121/193/10 123/195/10 124/196/10 122/194/10
f 117/189/4 120/192/4 122/194/4 124/196/4 125/197/4 118/190/4
f 123/195/9 126/198/9 125/197/9 124/196/9
f 126/198/8 115/187/8 118/190/8 125/197/8
f 115/187/14 127/199/14 128/200/14 116/188/14
f 123/195/12 129/201/12 130/202/12 126/198/12
f 116/188/13 128/200/13 131/203/13 119/191/13
f 119/191/11 131/203/11 132/204/11 121/193/11
f 121/193/16 132/204/16 129/201/16 123/195/16
f 126/198/15 130/202/15 127/199/15 115/187/15
f 133/205/18 134/206/18 135/207/18 136/208/18
f 134/209/3 137/210/3 138/211/3 135/212/3
f 137/213/17 139/214/17 140/215/17 138/216/17
f 139/217/20 141/218/20 142/219/20 140/220/20
f 135/221/1 138/222/1 140/223/1 142/224/1 143/225/1 136/226/1
f 141/227/4 144/228/4 143/229/4 142/230/4
f 144/231/19 133/232/19 136/233/19 143/234/19
f 133/235/21 144/236/21 141/237/21 139/238/21 137/239/21 134/240/21
f 113/185/21 79/127/21 80/128/21 114/186/21
f 145/241/1 146/242/1 147/243/1 148/244/1
f 148/244/2 147/243/2 149/245/2 150/246/2
f 151/247/3 145/241/3 148/244/3 150/246/3
f 146/242/4 152/248/4 149/245/4 147/243/4
f 153/249/5 154/250/5 155/251/5 156/252/5
f 156/252/6 155/251/6 157/253/6 158/254/6
f 158/254/7 157/253/7 159/255/7 160/256/7
f 160/256/8 159/255/8 161/257/8 162/258/8
f 155/251/4 154/250/4 163/259/4 161/257/4 159/255/4 157/253/4
f 162/258/9 161/257/9 163/259/9 164/260/9
f 164/260/10 163/259/10 154/250/10 153/249/10
f 153/249/11 156/252/11 165/261/11 166/262/11
f 162/258/12 164/260/12 167/263/12 168/264/12
f 156/252/13 158/254/13 169/265/13 165/261/13
f 158/254/14 160/256/14 170/266/14 169/265/14
f 160/256/15 162/258/15 168/264/15 170/266/15
f 164/260/16 153/249/16 166/262/16 167/263/16
f 171/267/17 172/268/17 173/269/17 174/270/17
f 174/271/3 173/272/3 175/273/3 176/274/3
f 176/275/18 175/276/18 177/277/18 178/278/18
f 178/279/19 177/280/19 179/281/19 180/282/19
f 173/283/1 172/284/1 181/285/1 179/286/1 177/287/1 175/288/1
f 180/289/4 179/290/4 181/291/4 182/292/4
f 182/293/20 181/294/20 172/295/20 171/296/20
f 171/297/21 174/298/21 176/299/21 178/300/21 180/301/21 182/302/21
f 150/246/21 149/245/21 152/248/21 151/247/21
f 145/241/1 183/303/1 184/304/1 146/242/1
f 183/303/22 185/305/22 186/306/22 184/304/22
f 151/247/3 185/305/3 183/303/3 145/241/3
f 146/242/4 184/304/4 186/306/4 152/248/4
f 187/307/7 188/308/7 189/309/7 190/310/7
f 188/308/6 191/311/6 192/312/6 189/309/6
f 191/311/5 193/313/5 194/314/5 192/312/5
f 193/313/10 195/315/10 196/316/10 194/314/10
f 189/309/4 192/312/4 194/314/4 196/316/4 197/317/4 190/310/4
f 195/315/9 198/318/9 197/317/9 196/316/9
f 198/318/8 187/307/8 190/310/8 197/317/8
f 187/307/14 199/319/14 200/320/14 188/308/14
f 195/315/12 201/321/12 202/322/12 198/318/12
f 188/308/13 200/320/13 203/323/13 191/311/13
f 191/311/11 203/323/11 204/324/11 193/313/11
f 193/313/16 204/324/16 201/321/16 195/315/16
f 198/318/15 202/322/15 199/319/15 187/307/15
f 205/325/18 206/326/18 207/327/18 208/328/18
f 206/329/3 209/330/3 210/331/3 207/332/3
f 209/333/17 211/334/17 212/335/17 210/336/17
f 211/337/20 213/338/20 214/339/20 212/340/20
f 207/341/1 210/342/1 212/343/1 214/344/1 215/345/1 208/346/1
f 213/347/4 216/348/4 215/349/4 214/350/4
f 216/351/19 205/352/19 208/353/19 215/354/19
f 205/355/21 216/356/21 213/357/21 211/358/21 209/359/21 206/360/21
f 185/305/21 151/247/21 152/248/21 186/306/21
f 217/361/1 218/362/1 219/363/1 220/364/1
f 220/364/2 219/363/2 221/365/2 222/366/2
f 223/367/3 217/361/3 220/364/3 222/366/3
f 218/362/4 224/368/4 221/365/4 219/363/4
f 225/369/5 226/370/5 227/371/5 228/372/5
f 228/372/6 227/371/6 229/373/6 230/374/6
f 230/374/7 229/373/7 231/375/7 232/376/7
f 232/376/8 231/375/8 233/377/8 234/378/8
f 227/371/4 226/370/4 235/379/4 233/377/4 231/375/4 229/373/4
f 234/378/9 233/377/9 235/379/9 236/380/9
f 236/380/10 235/379/10 226/370/10 225/369/10
f 225/369/11 228/372/11 237/381/11 238/382/11
f 234/378/12 236/380/12 239/383/12 240/384/12
f 228/372/13 230/374/13 241/385/13 237/381/13
f 230/374/14 232/376/14 242/386/14 241/385/14
f 232/376/15 234/378/15 240/384/15 242/386/15
f 236/380/16 225/369/16 238/382/16 239/383/16
f 243/387/17 244/388/17 245/389/17 246/390/17
f 246/391/3 245/392/3 247/393/3 248/394/3
f 248/395/18 247/396/18 249/397/18 250/398/18
f 250/399/19 249/400/19 251/401/19 252/402/19
f 245/403/1 244/404/1 253/405/1 251/406/1 249/407/1 247/408/1
f 252/409/4 251/410/4 253/411/4 254/412/4
f 254/413/20 253/414/20 244/415/20 243/416/20
f 243/417/21 246/418/21 248/419/21 250/420/21 252/421/21 254/422/21
f 222/366/21 221/365/21 224/368/21 223/367/21
f 217/361/1 255/423/1 256/424/1 218/362/1
f 255/423/22 257/425/22 258/426/22 256/424/22
f 223/367/3 257/425/3 255/423/3 217/361/3
f 218/362/4 256/424/4 258/426/4 224/368/4
f 259/427/7 260/428/7 261/429/7 262/430/7
f 260/428/6 263/431/6 264/432/6 261/429/6
f 263/431/5 265/433/5 266/434/5 264/432/5
f 265/433/10 267/435/10 268/436/10 266/434/10
f 261/429/4 264/432/4 266/434/4 268/436/4 269/437/4 262/430/4
f 267/435/9 270/438/9 269/437/9 268/436/9
f 270/438/8 259/427/8 262/430/8 269/437/8
f 259/427/14 271/439/14 272/440/14 260/428/14
f 267/435/12 273/441/12 274/442/12 270/438/12
f 260/428/13 272/440/13 275/443/13 263/431/13
f 263/431/11 275/443/11 276/444/11 265/433/11
f 265/433/16 276/444/16 273/441/16 267/435/16
f 270/438/15 274/442/15 271/439/15 259/427/15
f 277/445/18 278/446/18 279/447/18 280/448/18
f 278/449/3 281/450/3 282/451/3 279/452/3
f 281/453/17 283/454/17 284/455/17 282/456/17
f 283/457/20 285/458/20 286/459/20 284/460/20
f 279/461/1 282/462/1 284/463/1 286/464/1 287/465/1 280/466/1
f 285/467/4 288/468/4 287/469/4 286/470/4
f 288/471/19 277/472/19 280/473/19 287/474/19
f 277/475/21 288/476/21 285/477/21 283/478/21 281/479/21 278/480/21
f 257/425/21 223/367/21 224/368/21 258/426/21
f 289/481/1 290/482/1 291/483/1 292/484/1
f 292/484/2 291/483/2 293/485/2 294/486/2
f 295/487/3 289/481/3 292/484/3 294/486/3
f 290/482/4 296/488/4 293/485/4 291/483/4
f 297/489/5 298/490/5 299/491/5 300/492/5
f 300/492/6 299/491/6 301/493/6 302/494/6
f 302/494/7 301/493/7 303/495/7 304/496/7
f 304/496/8 303/495/8 305/497/8 306/498/8
f 299/491/4 298/490/4 307/499/4 305/497/4 303/495/4 301/493/4
f 306/498/9 305/497/9 307/499/9 308/500/9
f 308/500/10 307/499/10 298/490/10 297/489/10
f 297/489/11 300/492/11 309/501/11 310/502/11
f 306/498/12 308/500/12 311/503/12 312/504/12
f 300/492/13 302/494/13 313/505/13 309/501/13
f 302/494/14 304/496/14 314/506/14 313/505/14
f 304/496/15 306/498/15 312/504/15 314/506/15
f 308/500/16 297/489/16 310/502/16 311/503/16
f 315/507/17 316/508/17 317/509/17 318/510/17
f 318/511/3 317/512/3 319/513/3 320/514/3
f 320/515/18 319/516/18 321/517/18 322/518/18
f 322/519/19 321/520/19 323/521/19 324/522/19
f 317/523/1 316/524/1 325/525/1 323/526/1 321/527/1 319/528/1
f 324/529/4 323/530/4 325/531/4 326/532/4
f 326/533/20 325/534/20 316/535/20 315/536/20
f 315/537/21 318/538/21 320/539/21 322/540/21 324/541/21 326/542/21
f 294/486/21 293/485/21 296/488/21 295/487/21
f 289/481/1 327/543/1 328/544/1 290/482/1
f 327/543/22 329/545/22 330/546/22 328/544/22
f 295/487/3 329/545/3 327/543/3 289/481/3
f 290/482/4 328/544/4 330/546/4 296/488/4
f 331/547/7 332/548/7 333/549/7 334/550/7
f 332/548/6 335/551/6 336/552/6 333/549/6
f 335/551/5 337/553/5 338/554/5 336/552/5
f 337/553/10 339/555/10 340/556/10 338/554/10
f 333/549/4 336/552/4 338/554/4 340/556/4 341/557/4 334/550/4
f 339/555/9 342/558/9 341/557/9 340/556/9
f 342/558/8 331/547/8 334/550/8 341/557/8
f 331/547/14 343/559/14 344/560/14 332/548/14
f 339/555/12 345/561/12 346/562/12 342/558/12
f 332/548/13 344/560/13 347/563/13 335/551/13
f 335/551/11 347/563/11 348/564/11 337/553/11
f 337/553/16 348/564/16 345/561/16 339/555/16
f 342/558/15 346/562/15 343/559/15 331/547/15
f 349/565/18 350/566/18 351/567/18 352/568/18
f 350/569/3 353/570/3 354/571/3 351/572/3
f 353/573/17 355/574/17 356/575/17 354/576/17
f 355/577/20 357/578/20 358/579/20 356/580/20
f 351/581/1 354/582/1 356/583/1 358/584/1 359/585/1 352/586/1
f 357/587/4 360/588/4 359/589/4 358/590/4
f 360/591/19 349/592/19 352/593/19 359/594/19
f 349/595/21 360/596/21 357/597/21 355/598/21 353/599/21 350/600/21
f 329/545/21 295/487/21 296/488/21 330/546/21
