# Blender v2.79 (sub 0) OBJ File: 'tree animated.blend'
# www.blender.org
mtllib TREE BILLBOARD.mtl
o TREE_BILL_DIFF
v -0.439704 -6.863992 -0.000000
v 0.827361 -6.863992 -0.000000
v 0.062339 6.863992 0.000000
v -0.439704 -3.504733 -0.000000
v -1.993654 -3.210510 -0.000000
v -3.451973 -1.886469 -0.000000
v -4.073552 -0.317229 -0.000000
v -3.595414 2.551566 0.000000
v -2.902114 4.684762 0.000000
v 3.767910 3.630419 0.000000
v 4.030884 -0.341727 -0.000000
v 3.600564 -1.273497 -0.000000
v 4.556837 -1.984543 -0.000000
v 2.955074 -3.210510 -0.000000
v 0.827364 -3.627353 -0.000000
vt 0.288599 0.841256
vt 0.238096 0.685866
vt 0.774469 0.764454
vt 0.203267 0.476892
vt 0.467970 0.244702
vt 0.560268 0.235769
vt 0.762279 0.407233
vt 0.504541 1.000000
vt 0.793625 0.475107
vt 0.248545 0.362582
vt 0.354774 0.266134
vt 0.467970 0.000000
vt 0.560268 0.000000
vt 0.715259 0.266134
vt 0.831938 0.355438
vn 0.0000 -0.0000 1.0000
usemtl TREE_BILL_DIFF
s off
f 9/1/1 8/2/1 10/3/1
f 8/2/1 7/4/1 4/5/1
f 4/5/1 15/6/1 12/7/1
f 10/3/1 3/8/1 9/1/1
f 10/3/1 8/2/1 11/9/1
f 7/4/1 6/10/1 4/5/1
f 6/10/1 5/11/1 4/5/1
f 4/5/1 1/12/1 15/6/1
f 1/12/1 2/13/1 15/6/1
f 12/7/1 8/2/1 4/5/1
f 12/7/1 11/9/1 8/2/1
f 14/14/1 13/15/1 12/7/1
f 15/6/1 14/14/1 12/7/1
